<svg xmlns="http://www.w3.org/2000/svg" viewBox="0 0 24 24" width="100%" height="100%" fill="#25D366">
  <path d="M12.003 2c-5.518 0-9.998 4.48-9.998 9.998 0 1.954.566 3.826 1.642 5.438L2.2 21.8l4.49-1.178c1.554.982 3.354 1.5 5.313 1.5 5.517 0 9.997-4.48 9.997-9.998S17.52 2 12.003 2zm0 18.358c-1.697 0-3.355-.456-4.81-1.32l-.345-.205-2.65.696.71-2.584-.225-.36c-.95-1.514-1.45-3.26-1.45-5.065 0-4.613 3.754-8.366 8.367-8.366 4.615 0 8.368 3.753 8.368 8.366s-3.753 8.367-8.368 8.367zm4.595-6.275c-.252-.126-1.492-.736-1.722-.82-.23-.084-.398-.126-.566.126-.168.252-.65.82-.797.988-.147.168-.294.19-.546.063-.252-.126-1.065-.392-2.03-1.25-.75-.668-1.256-1.493-1.403-1.745-.147-.252-.016-.388.11-.514.113-.113.252-.294.378-.44.126-.147.168-.252.252-.42.084-.168.042-.315-.02-.44-.063-.126-.566-1.365-.776-1.87-.205-.49-.413-.424-.566-.432l-.482-.008c-.168 0-.44.063-.67.315s-.88 .86-1.026 2.098c-.02.168.062 1.343 1.05 2.666 0 0 1.803 2.75 4.364 3.856.61.262 1.085.42 1.456.537.61.194 1.166.166 1.606.102.493-.072 1.492-.61 1.702-1.2.21-.59.21-1.092.147-1.2-.063-.105-.23-.168-.482-.294z" />
</svg>
